<svg width="50" height="50" viewBox="0 0 50 50" fill="none" xmlns="http://www.w3.org/2000/svg">
<rect width="50" height="50" rx="25" fill="url(#paint0_linear_1274_1104)"/>
<path d="M28.8077 29.9615V36.9308C28.8077 37.9692 27.8154 38.9615 26.7769 38.9615H20.6846C19.4154 38.9615 18.3885 38.8 17.2 38.3846C16.8308 38.2577 15.7462 37.8077 15.7462 37.8077V29.6846L20.5346 24.0538L20.9731 21.55H21.8385C22.8077 21.55 23.4769 22.3231 23.4769 23.2808V23.8231C23.4769 25.0577 23.4077 26.3038 23.2577 27.5269L23.2115 27.9308H26.7769C27.8154 27.9308 28.8077 28.9231 28.8077 29.9615ZM10.2308 38.6731H14.5808V28.8077H10.2308V38.6731ZM27.7577 15.4692H30.3654L30.3308 15.1692C30.2269 14.2692 30.1692 13.3577 30.1692 12.4461V12.0538C30.1692 11.35 30.6654 10.7846 31.3808 10.7846H32.0154L32.3385 12.6192L35.8462 16.7385V22.7038C35.8462 22.7038 35.05 23.0385 34.7846 23.1308C33.9077 23.4423 33.1577 23.5577 32.2346 23.5577H27.7692C27.0077 23.5577 26.2808 22.8308 26.2808 22.0692V16.9577C26.2692 16.1961 26.9962 15.4692 27.7577 15.4692ZM39.8962 16.1038H36.7V23.3385H39.8962V16.1038Z" fill="white"/>
<defs>
<linearGradient id="paint0_linear_1274_1104" x1="50" y1="0" x2="0" y2="50" gradientUnits="userSpaceOnUse">
<stop stop-color="#18B68A"/>
<stop offset="1" stop-color="#66CF79"/>
</linearGradient>
</defs>
</svg>
