<svg width="3183" height="240" viewBox="0 0 3183 240" fill="none" xmlns="http://www.w3.org/2000/svg">
<path d="M0 236.022V3.97789H100.442C121.215 3.97789 139.116 7.4033 154.144 14.2541C169.171 20.884 180.773 30.4972 188.95 43.0939C197.127 55.6906 201.215 70.7182 201.215 88.1768C201.215 105.414 197.127 120.331 188.95 132.928C180.773 145.304 169.171 154.807 154.144 161.436C139.116 168.066 121.215 171.381 100.442 171.381H29.8343L53.7017 147.845V236.022H0ZM147.514 236.022L89.5028 151.823H146.851L205.525 236.022H147.514ZM53.7017 153.812L29.8343 128.619H97.4586C114.033 128.619 126.409 125.083 134.586 118.011C142.762 110.718 146.851 100.773 146.851 88.1768C146.851 75.3591 142.762 65.4144 134.586 58.3425C126.409 51.2707 114.033 47.7348 97.4586 47.7348H29.8343L53.7017 22.2099V153.812Z" fill="black"/>
<path d="M293.155 97.4586H404.868V139.227H293.155V97.4586ZM297.133 192.928H423.431V236.022H243.763V3.97789H419.122V47.0718H297.133V192.928Z" fill="black"/>
<path d="M578.204 240C559.862 240 542.956 237.127 527.486 231.381C512.238 225.414 498.867 217.017 487.376 206.188C476.105 195.359 467.265 182.652 460.856 168.066C454.669 153.481 451.575 137.459 451.575 120C451.575 102.541 454.669 86.5193 460.856 71.9337C467.265 57.348 476.215 44.6409 487.707 33.8121C499.199 22.9834 512.68 14.6961 528.149 8.95026C543.619 2.98342 560.635 0 579.199 0C599.751 0 618.204 3.4254 634.558 10.2762C651.133 17.1271 665.055 27.0718 676.326 40.1105L641.851 71.9337C633.453 63.0939 624.282 56.5746 614.337 52.3757C604.392 47.9558 593.564 45.7459 581.851 45.7459C570.58 45.7459 560.304 47.5138 551.022 51.0497C541.74 54.5856 533.674 59.6685 526.823 66.2983C520.193 72.9282 515 80.7735 511.243 89.8342C507.707 98.895 505.939 108.95 505.939 120C505.939 130.829 507.707 140.773 511.243 149.834C515 158.895 520.193 166.851 526.823 173.702C533.674 180.331 541.63 185.414 550.691 188.95C559.972 192.486 570.138 194.254 581.188 194.254C591.796 194.254 602.072 192.597 612.017 189.282C622.182 185.746 632.017 179.889 641.519 171.713L672.017 210.497C659.42 220 644.724 227.293 627.928 232.376C611.354 237.459 594.779 240 578.204 240ZM622.956 203.536V116.354H672.017V210.497L622.956 203.536Z" fill="black"/>
<path d="M721.901 236.022V3.97789H775.603V236.022H721.901Z" fill="black"/>
<path d="M830.672 236.022V3.97789H875.091L1012 171.05H990.451V3.97789H1043.49V236.022H999.401L862.163 68.9503H883.71V236.022H830.672Z" fill="black"/>
<path d="M1067.89 236.022L1171.32 3.97789H1224.36L1328.11 236.022H1271.76L1186.9 31.1602H1208.11L1122.92 236.022H1067.89ZM1119.61 186.298L1133.86 145.525H1253.2L1267.78 186.298H1119.61Z" fill="black"/>
<path d="M1455.95 236.022V3.97789H1489.1V207.182H1614.73V236.022H1455.95Z" fill="black"/>
<path d="M1753.32 238.674C1735.64 238.674 1719.17 235.691 1703.92 229.724C1688.9 223.757 1675.86 215.47 1664.81 204.862C1653.76 194.033 1645.14 181.436 1638.95 167.072C1632.76 152.707 1629.67 137.017 1629.67 120C1629.67 102.983 1632.76 87.2928 1638.95 72.9282C1645.14 58.5635 1653.76 46.0773 1664.81 35.4696C1675.86 24.6409 1688.9 16.2431 1703.92 10.2762C1718.95 4.30938 1735.42 1.32596 1753.32 1.32596C1771 1.32596 1787.24 4.30938 1802.05 10.2762C1817.07 16.0221 1830.11 24.3094 1841.16 35.1381C1852.43 45.7459 1861.05 58.232 1867.02 72.5967C1873.21 86.9613 1876.3 102.762 1876.3 120C1876.3 137.238 1873.21 153.039 1867.02 167.403C1861.05 181.768 1852.43 194.365 1841.16 205.193C1830.11 215.801 1817.07 224.088 1802.05 230.055C1787.24 235.801 1771 238.674 1753.32 238.674ZM1753.32 209.171C1766.13 209.171 1777.96 206.961 1788.79 202.541C1799.84 198.122 1809.34 191.934 1817.29 183.978C1825.47 175.801 1831.77 166.298 1836.19 155.47C1840.83 144.641 1843.15 132.818 1843.15 120C1843.15 107.182 1840.83 95.3591 1836.19 84.5304C1831.77 73.7016 1825.47 64.3094 1817.29 56.3536C1809.34 48.1768 1799.84 41.8784 1788.79 37.4586C1777.96 33.0387 1766.13 30.8287 1753.32 30.8287C1740.28 30.8287 1728.23 33.0387 1717.18 37.4586C1706.36 41.8784 1696.85 48.1768 1688.68 56.3536C1680.5 64.3094 1674.09 73.7016 1669.45 84.5304C1665.03 95.3591 1662.82 107.182 1662.82 120C1662.82 132.818 1665.03 144.641 1669.45 155.47C1674.09 166.298 1680.5 175.801 1688.68 183.978C1696.85 191.934 1706.36 198.122 1717.18 202.541C1728.23 206.961 1740.28 209.171 1753.32 209.171Z" fill="black"/>
<path d="M2031.72 238.674C2013.82 238.674 1997.35 235.801 1982.33 230.055C1967.3 224.088 1954.26 215.801 1943.21 205.193C1932.16 194.365 1923.54 181.768 1917.35 167.403C1911.17 153.039 1908.07 137.238 1908.07 120C1908.07 102.762 1911.17 86.9613 1917.35 72.5967C1923.54 58.232 1932.16 45.7459 1943.21 35.1381C1954.48 24.3094 1967.63 16.0221 1982.66 10.2762C1997.68 4.30938 2014.26 1.32596 2032.38 1.32596C2050.72 1.32596 2067.52 4.30938 2082.77 10.2762C2098.02 16.2431 2110.94 25.1934 2121.55 37.1271L2101 57.6795C2091.5 48.3978 2081.11 41.6574 2069.84 37.4586C2058.79 33.0387 2046.75 30.8287 2033.71 30.8287C2020.45 30.8287 2008.07 33.0387 1996.58 37.4586C1985.31 41.8784 1975.47 48.0663 1967.08 56.0221C1958.9 63.9779 1952.49 73.4807 1947.85 84.5304C1943.43 95.3591 1941.22 107.182 1941.22 120C1941.22 132.597 1943.43 144.42 1947.85 155.47C1952.49 166.298 1958.9 175.801 1967.08 183.978C1975.47 191.934 1985.31 198.122 1996.58 202.541C2007.85 206.961 2020.12 209.171 2033.38 209.171C2045.75 209.171 2057.57 207.293 2068.84 203.536C2080.34 199.558 2090.94 193.039 2100.67 183.978L2119.56 209.171C2108.07 218.895 2094.59 226.298 2079.12 231.381C2063.87 236.243 2048.07 238.674 2031.72 238.674ZM2087.74 204.862V118.674H2119.56V209.171L2087.74 204.862Z" fill="black"/>
<path d="M2183.03 236.022V3.97789H2216.18V236.022H2183.03Z" fill="black"/>
<path d="M2353.28 238.674C2335.6 238.674 2318.69 236.022 2302.56 230.718C2286.42 225.193 2273.72 218.122 2264.44 209.503L2276.7 183.646C2285.54 191.381 2296.81 197.79 2310.51 202.873C2324.21 207.956 2338.47 210.497 2353.28 210.497C2366.76 210.497 2377.69 208.95 2386.09 205.856C2394.49 202.762 2400.68 198.564 2404.66 193.26C2408.63 187.735 2410.62 181.547 2410.62 174.696C2410.62 166.74 2407.97 160.331 2402.67 155.47C2397.58 150.608 2390.84 146.74 2382.45 143.867C2374.27 140.773 2365.21 138.122 2355.26 135.912C2345.32 133.702 2335.26 131.16 2325.1 128.287C2315.15 125.193 2305.98 121.326 2297.58 116.685C2289.41 112.044 2282.78 105.856 2277.69 98.1215C2272.61 90.1657 2270.07 80 2270.07 67.6243C2270.07 55.6906 2273.16 44.7514 2279.35 34.8066C2285.76 24.6409 2295.48 16.5746 2308.52 10.6077C2321.78 4.41989 2338.58 1.32596 2358.91 1.32596C2372.39 1.32596 2385.76 3.09392 2399.02 6.62983C2412.28 10.1657 2423.77 15.2486 2433.5 21.8784L2422.56 48.3978C2412.61 41.7679 2402.11 37.0166 2391.07 34.1436C2380.02 31.0497 2369.3 29.5028 2358.91 29.5028C2345.87 29.5028 2335.15 31.1602 2326.76 34.4751C2318.36 37.79 2312.17 42.2099 2308.19 47.7348C2304.44 53.2597 2302.56 59.4475 2302.56 66.2983C2302.56 74.4751 2305.1 80.9945 2310.18 85.8563C2315.48 90.7182 2322.23 94.5856 2330.4 97.4586C2338.8 100.331 2347.97 102.983 2357.92 105.414C2367.86 107.624 2377.81 110.166 2387.75 113.039C2397.92 115.912 2407.09 119.669 2415.26 124.309C2423.66 128.95 2430.4 135.138 2435.49 142.873C2440.57 150.608 2443.11 160.552 2443.11 172.707C2443.11 184.42 2439.9 195.359 2433.5 205.525C2427.09 215.47 2417.14 223.536 2403.66 229.724C2390.4 235.691 2373.61 238.674 2353.28 238.674Z" fill="black"/>
<path d="M2534.38 236.022V32.8177H2454.82V3.97789H2646.75V32.8177H2567.2V236.022H2534.38Z" fill="black"/>
<path d="M2682.86 236.022V3.97789H2716.01V236.022H2682.86Z" fill="black"/>
<path d="M2889.24 238.674C2871.56 238.674 2855.2 235.801 2840.17 230.055C2825.37 224.088 2812.44 215.801 2801.39 205.193C2790.56 194.365 2782.05 181.768 2775.87 167.403C2769.68 153.039 2766.58 137.238 2766.58 120C2766.58 102.762 2769.68 86.9613 2775.87 72.5967C2782.05 58.232 2790.67 45.7459 2801.72 35.1381C2812.77 24.3094 2825.7 16.0221 2840.51 10.2762C2855.53 4.30938 2871.89 1.32596 2889.57 1.32596C2907.47 1.32596 2923.93 4.41989 2938.96 10.6077C2954.21 16.5746 2967.14 25.5248 2977.74 37.4586L2956.2 58.3425C2947.36 49.0608 2937.41 42.2099 2926.36 37.79C2915.31 33.1492 2903.49 30.8287 2890.89 30.8287C2877.85 30.8287 2865.7 33.0387 2854.43 37.4586C2843.38 41.8784 2833.77 48.0663 2825.59 56.0221C2817.41 63.9779 2811 73.4807 2806.36 84.5304C2801.94 95.3591 2799.73 107.182 2799.73 120C2799.73 132.818 2801.94 144.751 2806.36 155.801C2811 166.63 2817.41 176.022 2825.59 183.978C2833.77 191.934 2843.38 198.122 2854.43 202.541C2865.7 206.961 2877.85 209.171 2890.89 209.171C2903.49 209.171 2915.31 206.961 2926.36 202.541C2937.41 197.901 2947.36 190.829 2956.2 181.326L2977.74 202.21C2967.14 214.144 2954.21 223.204 2938.96 229.392C2923.93 235.58 2907.36 238.674 2889.24 238.674Z" fill="black"/>
<path d="M3092.33 238.674C3074.65 238.674 3057.75 236.022 3041.61 230.718C3025.48 225.193 3012.78 218.122 3003.49 209.503L3015.76 183.646C3024.6 191.381 3035.87 197.79 3049.57 202.873C3063.27 207.956 3077.53 210.497 3092.33 210.497C3105.81 210.497 3116.75 208.95 3125.15 205.856C3133.55 202.762 3139.74 198.564 3143.71 193.26C3147.69 187.735 3149.68 181.547 3149.68 174.696C3149.68 166.74 3147.03 160.331 3141.73 155.47C3136.64 150.608 3129.9 146.74 3121.5 143.867C3113.33 140.773 3104.27 138.122 3094.32 135.912C3084.38 133.702 3074.32 131.16 3064.16 128.287C3054.21 125.193 3045.04 121.326 3036.64 116.685C3028.47 112.044 3021.84 105.856 3016.75 98.1215C3011.67 90.1657 3009.13 80 3009.13 67.6243C3009.13 55.6906 3012.22 44.7514 3018.41 34.8066C3024.82 24.6409 3034.54 16.5746 3047.58 10.6077C3060.84 4.41989 3077.64 1.32596 3097.97 1.32596C3111.45 1.32596 3124.82 3.09392 3138.08 6.62983C3151.34 10.1657 3162.83 15.2486 3172.55 21.8784L3161.62 48.3978C3151.67 41.7679 3141.17 37.0166 3130.12 34.1436C3119.07 31.0497 3108.36 29.5028 3097.97 29.5028C3084.93 29.5028 3074.21 31.1602 3065.81 34.4751C3057.42 37.79 3051.23 42.2099 3047.25 47.7348C3043.49 53.2597 3041.61 59.4475 3041.61 66.2983C3041.61 74.4751 3044.16 80.9945 3049.24 85.8563C3054.54 90.7182 3061.28 94.5856 3069.46 97.4586C3077.86 100.331 3087.03 102.983 3096.97 105.414C3106.92 107.624 3116.86 110.166 3126.81 113.039C3136.97 115.912 3146.15 119.669 3154.32 124.309C3162.72 128.95 3169.46 135.138 3174.54 142.873C3179.63 150.608 3182.17 160.552 3182.17 172.707C3182.17 184.42 3178.96 195.359 3172.55 205.525C3166.15 215.47 3156.2 223.536 3142.72 229.724C3129.46 235.691 3112.66 238.674 3092.33 238.674Z" fill="black"/>
</svg>
