<svg width="30" height="30" viewBox="0 0 30 30" fill="none" xmlns="http://www.w3.org/2000/svg">
<path fill-rule="evenodd" clip-rule="evenodd" d="M3 7.8C3 5.14903 5.14903 3 7.8 3H22.2C24.8509 3 27 5.14903 27 7.8V22.2C27 24.8509 24.8509 27 22.2 27H7.8C5.14903 27 3 24.8509 3 22.2V7.8ZM7.8 5.4C6.47452 5.4 5.4 6.47452 5.4 7.8V22.2C5.4 23.5255 6.47452 24.6 7.8 24.6H22.2C23.5255 24.6 24.6 23.5255 24.6 22.2V7.8C24.6 6.47452 23.5255 5.4 22.2 5.4H7.8ZM15 11.4C13.0117 11.4 11.4 13.0117 11.4 15C11.4 16.9883 13.0117 18.6 15 18.6C16.9883 18.6 18.6 16.9883 18.6 15C18.6 13.0117 16.9883 11.4 15 11.4ZM9 15C9 11.6863 11.6863 9 15 9C18.3137 9 21 11.6863 21 15C21 18.3137 18.3137 21 15 21C11.6863 21 9 18.3137 9 15ZM21.6 10.2C22.5941 10.2 23.4 9.39412 23.4 8.4C23.4 7.40588 22.5941 6.6 21.6 6.6C20.6059 6.6 19.8 7.40588 19.8 8.4C19.8 9.39412 20.6059 10.2 21.6 10.2Z" fill="#1B1B1B"/>
</svg>
