<svg width="559" height="60" viewBox="0 0 559 60" fill="none" xmlns="http://www.w3.org/2000/svg">
<path d="M9.18372 49.5343V10.4657H26.2283C29.7535 10.4657 32.7911 11.0424 35.3412 12.1959C37.8913 13.3121 39.8602 14.9307 41.2478 17.0515C42.6353 19.1724 43.3291 21.7026 43.3291 24.642C43.3291 27.5443 42.6353 30.0558 41.2478 32.1767C39.8602 34.2603 37.8913 35.8603 35.3412 36.9766C32.7911 38.0928 29.7535 38.6509 26.2283 38.6509H14.2465L18.2967 34.6882V49.5343H9.18372ZM34.2162 49.5343L24.3719 35.358H34.1037L44.0604 49.5343H34.2162ZM18.2967 35.6929L14.2465 31.4511H25.722C28.5346 31.4511 30.6347 30.8558 32.0223 29.6651C33.4099 28.4373 34.1037 26.7629 34.1037 24.642C34.1037 22.4839 33.4099 20.8096 32.0223 19.6189C30.6347 18.4282 28.5346 17.8329 25.722 17.8329H14.2465L18.2967 13.5353V35.6929Z" fill="black"/>
<path d="M58.9309 26.2048H77.888V33.2371H58.9309V26.2048ZM59.6059 42.2787H81.0382V49.5343H50.5492V10.4657H80.3069V17.7213H59.6059V42.2787Z" fill="black"/>
<path d="M107.302 50.2041C104.19 50.2041 101.321 49.7204 98.6958 48.753C96.1082 47.7483 93.8393 46.3344 91.8893 44.5112C89.9767 42.688 88.4766 40.5485 87.389 38.0928C86.339 35.6371 85.814 32.9395 85.814 30C85.814 27.0605 86.339 24.363 87.389 21.9072C88.4766 19.4515 89.9954 17.312 91.9455 15.4888C93.8956 13.6656 96.1832 12.2703 98.8083 11.3029C101.433 10.2982 104.321 9.79592 107.471 9.79592C110.959 9.79592 114.09 10.3726 116.865 11.5261C119.678 12.6796 122.041 14.3539 123.953 16.5492L118.103 21.9072C116.678 20.4189 115.122 19.3212 113.434 18.6143C111.746 17.8701 109.909 17.498 107.921 17.498C106.009 17.498 104.265 17.7957 102.69 18.391C101.115 18.9864 99.7459 19.8421 98.5833 20.9584C97.4583 22.0746 96.577 23.3955 95.9394 24.9211C95.3394 26.4466 95.0394 28.1396 95.0394 30C95.0394 31.8232 95.3394 33.4976 95.9394 35.0231C96.577 36.5487 97.4583 37.8882 98.5833 39.0416C99.7459 40.1579 101.096 41.0136 102.634 41.609C104.209 42.2043 105.934 42.502 107.809 42.502C109.609 42.502 111.353 42.2229 113.04 41.6648C114.765 41.0695 116.434 40.0834 118.047 38.7067L123.222 45.2368C121.084 46.8367 118.591 48.0646 115.74 48.9204C112.928 49.7762 110.115 50.2041 107.302 50.2041ZM114.897 44.0647V29.3861H123.222V45.2368L114.897 44.0647Z" fill="black"/>
<path d="M131.687 49.5343V10.4657H140.8V49.5343H131.687Z" fill="black"/>
<path d="M150.145 49.5343V10.4657H157.683L180.915 38.5951H177.259V10.4657H186.259V49.5343H178.778L155.489 21.4049H159.146V49.5343H150.145Z" fill="black"/>
<path d="M190.4 49.5343L207.951 10.4657H216.952L234.559 49.5343H224.996L210.595 15.0423H214.195L199.738 49.5343H190.4ZM199.176 41.1625L201.595 34.2976H221.846L224.321 41.1625H199.176Z" fill="black"/>
<path d="M256.252 49.5343V10.4657H261.877V44.6787H283.197V49.5343H256.252Z" fill="black"/>
<path d="M306.714 49.9808C303.714 49.9808 300.92 49.4785 298.332 48.4739C295.782 47.4693 293.57 46.074 291.694 44.288C289.819 42.4648 288.357 40.3439 287.307 37.9254C286.257 35.5068 285.732 32.865 285.732 30C285.732 27.135 286.257 24.4932 287.307 22.0746C288.357 19.6561 289.819 17.5538 291.694 15.7678C293.57 13.9446 295.782 12.5307 298.332 11.5261C300.882 10.5215 303.676 10.0192 306.714 10.0192C309.714 10.0192 312.47 10.5215 314.983 11.5261C317.533 12.4935 319.746 13.8888 321.621 15.712C323.533 17.498 324.996 19.6003 326.009 22.0188C327.059 24.4374 327.584 27.0978 327.584 30C327.584 32.9022 327.059 35.5626 326.009 37.9812C324.996 40.3997 323.533 42.5206 321.621 44.3438C319.746 46.1298 317.533 47.5251 314.983 48.5297C312.47 49.4971 309.714 49.9808 306.714 49.9808ZM306.714 45.0135C308.889 45.0135 310.895 44.6415 312.733 43.8973C314.608 43.1531 316.221 42.1113 317.571 40.7718C318.958 39.3951 320.027 37.7951 320.777 35.9719C321.565 34.1487 321.958 32.1581 321.958 30C321.958 27.8419 321.565 25.8513 320.777 24.0281C320.027 22.2049 318.958 20.6235 317.571 19.284C316.221 17.9073 314.608 16.8469 312.733 16.1027C310.895 15.3586 308.889 14.9865 306.714 14.9865C304.501 14.9865 302.457 15.3586 300.582 16.1027C298.745 16.8469 297.132 17.9073 295.745 19.284C294.357 20.6235 293.27 22.2049 292.482 24.0281C291.732 25.8513 291.357 27.8419 291.357 30C291.357 32.1581 291.732 34.1487 292.482 35.9719C293.27 37.7951 294.357 39.3951 295.745 40.7718C297.132 42.1113 298.745 43.1531 300.582 43.8973C302.457 44.6415 304.501 45.0135 306.714 45.0135Z" fill="black"/>
<path d="M353.957 49.9808C350.92 49.9808 348.126 49.4971 345.576 48.5297C343.026 47.5251 340.813 46.1298 338.938 44.3438C337.063 42.5206 335.6 40.3997 334.55 37.9812C333.5 35.5626 332.975 32.9022 332.975 30C332.975 27.0978 333.5 24.4374 334.55 22.0188C335.6 19.6003 337.063 17.498 338.938 15.712C340.851 13.8888 343.082 12.4935 345.632 11.5261C348.182 10.5215 350.995 10.0192 354.07 10.0192C357.183 10.0192 360.033 10.5215 362.62 11.5261C365.208 12.5307 367.402 14.0377 369.202 16.0469L365.714 19.5073C364.102 17.9445 362.339 16.8097 360.426 16.1027C358.551 15.3586 356.508 14.9865 354.295 14.9865C352.045 14.9865 349.945 15.3586 347.995 16.1027C346.082 16.8469 344.413 17.8887 342.988 19.2282C341.601 20.5677 340.513 22.1677 339.725 24.0281C338.975 25.8513 338.6 27.8419 338.6 30C338.6 32.1209 338.975 34.1115 339.725 35.9719C340.513 37.7951 341.601 39.3951 342.988 40.7718C344.413 42.1113 346.082 43.1531 347.995 43.8973C349.907 44.6415 351.989 45.0135 354.239 45.0135C356.339 45.0135 358.345 44.6973 360.258 44.0647C362.208 43.395 364.008 42.2973 365.658 40.7718L368.864 45.0135C366.914 46.6507 364.627 47.8972 362.002 48.753C359.414 49.5715 356.733 49.9808 353.957 49.9808ZM363.464 44.288V29.7768H368.864V45.0135L363.464 44.288Z" fill="black"/>
<path d="M379.635 49.5343V10.4657H385.26V49.5343H379.635Z" fill="black"/>
<path d="M408.524 49.9808C405.524 49.9808 402.655 49.5343 399.918 48.6413C397.18 47.7111 395.024 46.5205 393.449 45.0693L395.53 40.716C397.03 42.0183 398.943 43.0973 401.268 43.9531C403.593 44.8089 406.012 45.2368 408.524 45.2368C410.812 45.2368 412.668 44.9763 414.093 44.4554C415.518 43.9345 416.568 43.2275 417.243 42.3345C417.918 41.4043 418.256 40.3625 418.256 39.209C418.256 37.8695 417.806 36.7905 416.906 35.9719C416.043 35.1533 414.9 34.5022 413.475 34.0185C412.087 33.4976 410.549 33.0511 408.862 32.679C407.174 32.3069 405.468 31.879 403.743 31.3953C402.055 30.8744 400.499 30.2233 399.074 29.4419C397.686 28.6605 396.561 27.6187 395.699 26.3164C394.836 24.9769 394.405 23.2653 394.405 21.1816C394.405 19.1724 394.93 17.3306 395.98 15.6562C397.067 13.9446 398.718 12.5865 400.93 11.5819C403.18 10.5401 406.03 10.0192 409.481 10.0192C411.768 10.0192 414.037 10.3168 416.287 10.9122C418.537 11.5075 420.487 12.3633 422.137 13.4795L420.281 17.9445C418.593 16.8283 416.812 16.0283 414.937 15.5446C413.062 15.0237 411.243 14.7632 409.481 14.7632C407.268 14.7632 405.449 15.0423 404.024 15.6004C402.599 16.1585 401.549 16.9027 400.874 17.8329C400.236 18.7631 399.918 19.8049 399.918 20.9584C399.918 22.3351 400.349 23.4327 401.211 24.2513C402.111 25.0699 403.255 25.7211 404.643 26.2048C406.068 26.6885 407.624 27.135 409.312 27.5443C410.999 27.9163 412.687 28.3442 414.375 28.8279C416.1 29.3117 417.656 29.9442 419.044 30.7256C420.469 31.5069 421.612 32.5488 422.475 33.8511C423.337 35.1533 423.769 36.8277 423.769 38.8742C423.769 40.8462 423.225 42.688 422.137 44.3996C421.05 46.074 419.362 47.4321 417.075 48.4739C414.825 49.4785 411.974 49.9808 408.524 49.9808Z" fill="black"/>
<path d="M439.257 49.5343V15.3213H425.756V10.4657H458.326V15.3213H444.826V49.5343H439.257Z" fill="black"/>
<path d="M464.453 49.5343V10.4657H470.078V49.5343H464.453Z" fill="black"/>
<path d="M499.474 49.9808C496.474 49.9808 493.699 49.4971 491.149 48.5297C488.636 47.5251 486.442 46.1298 484.567 44.3438C482.73 42.5206 481.286 40.3997 480.236 37.9812C479.186 35.5626 478.661 32.9022 478.661 30C478.661 27.0978 479.186 24.4374 480.236 22.0188C481.286 19.6003 482.749 17.498 484.624 15.712C486.499 13.8888 488.693 12.4935 491.205 11.5261C493.755 10.5215 496.53 10.0192 499.531 10.0192C502.568 10.0192 505.362 10.5401 507.912 11.5819C510.5 12.5865 512.694 14.0935 514.494 16.1027L510.837 19.6189C509.337 18.0562 507.65 16.9027 505.775 16.1585C503.9 15.3772 501.893 14.9865 499.756 14.9865C497.543 14.9865 495.48 15.3586 493.568 16.1027C491.693 16.8469 490.061 17.8887 488.674 19.2282C487.286 20.5677 486.199 22.1677 485.411 24.0281C484.661 25.8513 484.286 27.8419 484.286 30C484.286 32.1581 484.661 34.1673 485.411 36.0277C486.199 37.8509 487.286 39.4323 488.674 40.7718C490.061 42.1113 491.693 43.1531 493.568 43.8973C495.48 44.6415 497.543 45.0135 499.756 45.0135C501.893 45.0135 503.9 44.6415 505.775 43.8973C507.65 43.1159 509.337 41.9252 510.837 40.3253L514.494 43.8415C512.694 45.8507 510.5 47.3763 507.912 48.4181C505.362 49.4599 502.55 49.9808 499.474 49.9808Z" fill="black"/>
<path d="M533.939 49.9808C530.939 49.9808 528.07 49.5343 525.333 48.6413C522.595 47.7111 520.439 46.5205 518.864 45.0693L520.945 40.716C522.445 42.0183 524.358 43.0973 526.683 43.9531C529.008 44.8089 531.427 45.2368 533.939 45.2368C536.227 45.2368 538.083 44.9763 539.508 44.4554C540.933 43.9345 541.983 43.2275 542.658 42.3345C543.333 41.4043 543.671 40.3625 543.671 39.209C543.671 37.8695 543.221 36.7905 542.321 35.9719C541.458 35.1533 540.315 34.5022 538.889 34.0185C537.502 33.4976 535.964 33.0511 534.277 32.679C532.589 32.3069 530.883 31.879 529.158 31.3953C527.47 30.8744 525.914 30.2233 524.489 29.4419C523.101 28.6605 521.976 27.6187 521.114 26.3164C520.251 24.9769 519.82 23.2653 519.82 21.1816C519.82 19.1724 520.345 17.3306 521.395 15.6562C522.482 13.9446 524.132 12.5865 526.345 11.5819C528.595 10.5401 531.445 10.0192 534.896 10.0192C537.183 10.0192 539.452 10.3168 541.702 10.9122C543.952 11.5075 545.902 12.3633 547.552 13.4795L545.696 17.9445C544.008 16.8283 542.227 16.0283 540.352 15.5446C538.477 15.0237 536.658 14.7632 534.896 14.7632C532.683 14.7632 530.864 15.0423 529.439 15.6004C528.014 16.1585 526.964 16.9027 526.289 17.8329C525.651 18.7631 525.333 19.8049 525.333 20.9584C525.333 22.3351 525.764 23.4327 526.626 24.2513C527.526 25.0699 528.67 25.7211 530.058 26.2048C531.483 26.6885 533.039 27.135 534.727 27.5443C536.414 27.9163 538.102 28.3442 539.79 28.8279C541.515 29.3117 543.071 29.9442 544.459 30.7256C545.884 31.5069 547.027 32.5488 547.89 33.8511C548.752 35.1533 549.184 36.8277 549.184 38.8742C549.184 40.8462 548.64 42.688 547.552 44.3996C546.465 46.074 544.777 47.4321 542.49 48.4739C540.24 49.4785 537.389 49.9808 533.939 49.9808Z" fill="black"/>
</svg>
