<svg width="673" height="70" viewBox="0 0 673 70" fill="none" xmlns="http://www.w3.org/2000/svg">
<path d="M2.53096 0H59.233C60.6312 0 61.7638 1.19947 61.7638 2.67849V42.6366C61.7638 44.1156 60.6312 45.3115 59.233 45.3115H2.53096C1.13278 45.3115 0.000219525 44.1158 0.000219525 42.6366V2.67849C0.000219525 1.19947 1.13278 0 2.53096 0Z" fill="url(#paint0_linear_1335_23)"/>
<path d="M81.4817 54.198C85.4053 54.198 88.5885 57.5587 88.5885 61.7092C88.5885 65.858 85.4053 69.2222 81.4817 69.2222C77.5597 69.2222 74.3803 65.858 74.3803 61.7092C74.3803 57.5587 77.5597 54.198 81.4817 54.198Z" fill="url(#paint1_linear_1335_23)"/>
<path d="M2.10881 48.4595H62.6307C63.7949 48.4595 64.7411 47.4588 64.7411 46.2278V12.912C64.7411 11.6791 65.6837 10.6803 66.8515 10.6803H86.0753C86.7013 10.6803 87.2939 10.9756 87.6933 11.4821L101.458 28.9509C101.774 29.3501 101.947 29.8566 101.947 30.3773V45.7002V53.7126C101.947 54.9437 101.002 55.9424 99.8383 55.9424H89.232C87.5139 53.3679 84.6823 51.6778 81.4817 51.6778C78.2827 51.6778 75.4529 53.3679 73.7329 55.9424H30.444C28.7259 53.3679 25.8962 51.6778 22.6953 51.6778C19.4947 51.6778 16.6669 53.3679 14.9467 55.9424H2.10861C0.94439 55.9424 -2.86102e-06 54.9437 -2.86102e-06 53.7126V50.6912C0.000196254 49.4585 0.944591 48.4595 2.10881 48.4595ZM94.2406 32.1516V30.6077C94.2406 30.08 94.0701 29.5683 93.7551 29.155L84.969 17.7132C84.5538 17.1752 83.935 16.864 83.2807 16.864H74.6722C73.4693 16.864 72.4951 17.8926 72.4951 19.1624V32.1518C72.4951 33.4216 73.4695 34.4504 74.6722 34.4504H92.0668C93.2663 34.4502 94.2406 33.4214 94.2406 32.1516Z" fill="url(#paint2_linear_1335_23)"/>
<path d="M22.6952 54.198C26.6188 54.198 29.7985 57.5587 29.7985 61.7092C29.7985 65.858 26.6186 69.2222 22.6952 69.2222C18.7735 69.2222 15.5922 65.858 15.5922 61.7092C15.5922 57.5587 18.7737 54.198 22.6952 54.198Z" fill="url(#paint3_linear_1335_23)"/>
<path d="M123.184 54.5343V15.4656H140.228C143.753 15.4656 146.791 16.0424 149.341 17.1958C151.891 18.3121 153.86 19.9306 155.248 22.0515C156.635 24.1724 157.329 26.7025 157.329 29.642C157.329 32.5442 156.635 35.0558 155.248 37.1767C153.86 39.2603 151.891 40.8603 149.341 41.9765C146.791 43.0928 143.753 43.6509 140.228 43.6509H128.246L132.297 39.6882V54.5343H123.184ZM148.216 54.5343L138.372 40.358H148.104L158.06 54.5343H148.216ZM132.297 40.6928L128.246 36.4511H139.722C142.535 36.4511 144.635 35.8558 146.022 34.6651C147.41 33.4372 148.104 31.7629 148.104 29.642C148.104 27.4839 147.41 25.8095 146.022 24.6189C144.635 23.4282 142.535 22.8329 139.722 22.8329H128.246L132.297 18.5353V40.6928Z" fill="black"/>
<path d="M172.931 31.2047H191.888V38.2371H172.931V31.2047ZM173.606 47.2787H195.038V54.5343H164.549V15.4656H194.307V22.7213H173.606V47.2787Z" fill="black"/>
<path d="M221.302 55.2041C218.19 55.2041 215.321 54.7204 212.696 53.7529C210.108 52.7483 207.839 51.3344 205.889 49.5112C203.977 47.688 202.477 45.5485 201.389 43.0928C200.339 40.637 199.814 37.9394 199.814 35C199.814 32.0605 200.339 29.3629 201.389 26.9072C202.477 24.4514 203.995 22.312 205.946 20.4888C207.896 18.6656 210.183 17.2702 212.808 16.3028C215.433 15.2982 218.321 14.7959 221.471 14.7959C224.959 14.7959 228.09 15.3726 230.865 16.5261C233.678 17.6795 236.041 19.3539 237.953 21.5492L232.103 26.9072C230.678 25.4189 229.122 24.3212 227.434 23.6143C225.746 22.8701 223.909 22.498 221.921 22.498C220.009 22.498 218.265 22.7957 216.69 23.391C215.115 23.9863 213.746 24.8421 212.583 25.9584C211.458 27.0746 210.577 28.3955 209.939 29.9211C209.339 31.4466 209.039 33.1396 209.039 35C209.039 36.8232 209.339 38.4976 209.939 40.0231C210.577 41.5486 211.458 42.8881 212.583 44.0416C213.746 45.1578 215.096 46.0136 216.634 46.609C218.209 47.2043 219.934 47.502 221.809 47.502C223.609 47.502 225.353 47.2229 227.04 46.6648C228.765 46.0694 230.434 45.0834 232.047 43.7067L237.222 50.2368C235.084 51.8367 232.591 53.0646 229.74 53.9204C226.928 54.7762 224.115 55.2041 221.302 55.2041ZM228.897 49.0647V34.386H237.222V50.2368L228.897 49.0647Z" fill="black"/>
<path d="M245.687 54.5343V15.4656H254.8V54.5343H245.687Z" fill="black"/>
<path d="M264.145 54.5343V15.4656H271.683L294.915 43.5951H291.259V15.4656H300.259V54.5343H292.778L269.489 26.4049H273.146V54.5343H264.145Z" fill="black"/>
<path d="M304.4 54.5343L321.951 15.4656H330.952L348.559 54.5343H338.996L324.595 20.0423H328.195L313.738 54.5343H304.4ZM313.176 46.1625L315.595 39.2975H335.846L338.321 46.1625H313.176Z" fill="black"/>
<path d="M370.252 54.5343V15.4656H375.877V49.6786H397.197V54.5343H370.252Z" fill="black"/>
<path d="M420.714 54.9808C417.714 54.9808 414.92 54.4785 412.332 53.4739C409.782 52.4693 407.57 51.0739 405.694 49.2879C403.819 47.4647 402.357 45.3439 401.307 42.9253C400.257 40.5068 399.732 37.865 399.732 35C399.732 32.1349 400.257 29.4932 401.307 27.0746C402.357 24.6561 403.819 22.5538 405.694 20.7678C407.57 18.9446 409.782 17.5307 412.332 16.5261C414.882 15.5215 417.676 15.0191 420.714 15.0191C423.714 15.0191 426.47 15.5215 428.983 16.5261C431.533 17.4935 433.746 18.8888 435.621 20.712C437.533 22.498 438.996 24.6003 440.009 27.0188C441.059 29.4373 441.584 32.0977 441.584 35C441.584 37.9022 441.059 40.5626 440.009 42.9812C438.996 45.3997 437.533 47.5206 435.621 49.3438C433.746 51.1298 431.533 52.5251 428.983 53.5297C426.47 54.4971 423.714 54.9808 420.714 54.9808ZM420.714 50.0135C422.889 50.0135 424.895 49.6414 426.733 48.8973C428.608 48.1531 430.221 47.1113 431.571 45.7718C432.958 44.3951 434.027 42.7951 434.777 40.9719C435.565 39.1487 435.958 37.1581 435.958 35C435.958 32.8419 435.565 30.8513 434.777 29.0281C434.027 27.2049 432.958 25.6235 431.571 24.284C430.221 22.9073 428.608 21.8469 426.733 21.1027C424.895 20.3585 422.889 19.9864 420.714 19.9864C418.501 19.9864 416.457 20.3585 414.582 21.1027C412.745 21.8469 411.132 22.9073 409.745 24.284C408.357 25.6235 407.27 27.2049 406.482 29.0281C405.732 30.8513 405.357 32.8419 405.357 35C405.357 37.1581 405.732 39.1487 406.482 40.9719C407.27 42.7951 408.357 44.3951 409.745 45.7718C411.132 47.1113 412.745 48.1531 414.582 48.8973C416.457 49.6414 418.501 50.0135 420.714 50.0135Z" fill="black"/>
<path d="M467.957 54.9808C464.92 54.9808 462.126 54.4971 459.576 53.5297C457.026 52.5251 454.813 51.1298 452.938 49.3438C451.063 47.5206 449.6 45.3997 448.55 42.9812C447.5 40.5626 446.975 37.9022 446.975 35C446.975 32.0977 447.5 29.4373 448.55 27.0188C449.6 24.6003 451.063 22.498 452.938 20.712C454.851 18.8888 457.082 17.4935 459.632 16.5261C462.182 15.5215 464.995 15.0191 468.07 15.0191C471.183 15.0191 474.033 15.5215 476.62 16.5261C479.208 17.5307 481.402 19.0376 483.202 21.0469L479.714 24.5073C478.102 22.9445 476.339 21.8097 474.426 21.1027C472.551 20.3585 470.508 19.9864 468.295 19.9864C466.045 19.9864 463.945 20.3585 461.995 21.1027C460.082 21.8469 458.413 22.8887 456.988 24.2282C455.601 25.5677 454.513 27.1676 453.725 29.0281C452.975 30.8513 452.6 32.8419 452.6 35C452.6 37.1208 452.975 39.1115 453.725 40.9719C454.513 42.7951 455.601 44.3951 456.988 45.7718C458.413 47.1113 460.082 48.1531 461.995 48.8973C463.907 49.6414 465.989 50.0135 468.239 50.0135C470.339 50.0135 472.345 49.6972 474.258 49.0647C476.208 48.395 478.008 47.2973 479.658 45.7718L482.864 50.0135C480.914 51.6507 478.627 52.8971 476.002 53.7529C473.414 54.5715 470.733 54.9808 467.957 54.9808ZM477.464 49.2879V34.7767H482.864V50.0135L477.464 49.2879Z" fill="black"/>
<path d="M493.635 54.5343V15.4656H499.26V54.5343H493.635Z" fill="black"/>
<path d="M522.524 54.9808C519.524 54.9808 516.655 54.5343 513.918 53.6413C511.18 52.7111 509.024 51.5204 507.449 50.0693L509.53 45.716C511.03 47.0182 512.943 48.0973 515.268 48.9531C517.593 49.8089 520.012 50.2368 522.524 50.2368C524.812 50.2368 526.668 49.9763 528.093 49.4554C529.518 48.9345 530.568 48.2275 531.243 47.3345C531.918 46.4043 532.256 45.3625 532.256 44.209C532.256 42.8695 531.806 41.7905 530.906 40.9719C530.043 40.1533 528.9 39.5022 527.474 39.0185C526.087 38.4976 524.549 38.0511 522.862 37.679C521.174 37.3069 519.468 36.879 517.743 36.3953C516.055 35.8744 514.499 35.2232 513.074 34.4419C511.686 33.6605 510.561 32.6187 509.699 31.3164C508.836 29.9769 508.405 28.2653 508.405 26.1816C508.405 24.1724 508.93 22.3306 509.98 20.6562C511.067 18.9446 512.718 17.5865 514.93 16.5819C517.18 15.5401 520.03 15.0191 523.481 15.0191C525.768 15.0191 528.037 15.3168 530.287 15.9121C532.537 16.5075 534.487 17.3633 536.137 18.4795L534.281 22.9445C532.594 21.8283 530.812 21.0283 528.937 20.5446C527.062 20.0237 525.243 19.7632 523.481 19.7632C521.268 19.7632 519.449 20.0423 518.024 20.6004C516.599 21.1585 515.549 21.9027 514.874 22.8329C514.236 23.7631 513.918 24.8049 513.918 25.9584C513.918 27.3351 514.349 28.4327 515.211 29.2513C516.111 30.0699 517.255 30.721 518.643 31.2047C520.068 31.6884 521.624 32.1349 523.312 32.5442C524.999 32.9163 526.687 33.3442 528.375 33.8279C530.1 34.3116 531.656 34.9442 533.044 35.7255C534.469 36.5069 535.612 37.5487 536.475 38.851C537.337 40.1533 537.769 41.8277 537.769 43.8741C537.769 45.8462 537.225 47.688 536.137 49.3996C535.05 51.0739 533.362 52.432 531.075 53.4739C528.825 54.4785 525.974 54.9808 522.524 54.9808Z" fill="black"/>
<path d="M553.257 54.5343V20.3213H539.756V15.4656H572.326V20.3213H558.826V54.5343H553.257Z" fill="black"/>
<path d="M578.453 54.5343V15.4656H584.078V54.5343H578.453Z" fill="black"/>
<path d="M613.474 54.9808C610.474 54.9808 607.699 54.4971 605.149 53.5297C602.636 52.5251 600.442 51.1298 598.567 49.3438C596.73 47.5206 595.286 45.3997 594.236 42.9812C593.186 40.5626 592.661 37.9022 592.661 35C592.661 32.0977 593.186 29.4373 594.236 27.0188C595.286 24.6003 596.749 22.498 598.624 20.712C600.499 18.8888 602.693 17.4935 605.205 16.5261C607.755 15.5215 610.53 15.0191 613.531 15.0191C616.568 15.0191 619.362 15.5401 621.912 16.5819C624.5 17.5865 626.694 19.0934 628.494 21.1027L624.837 24.6189C623.337 23.0561 621.65 21.9027 619.775 21.1585C617.9 20.3771 615.893 19.9864 613.756 19.9864C611.543 19.9864 609.48 20.3585 607.568 21.1027C605.693 21.8469 604.061 22.8887 602.674 24.2282C601.286 25.5677 600.199 27.1676 599.411 29.0281C598.661 30.8513 598.286 32.8419 598.286 35C598.286 37.1581 598.661 39.1673 599.411 41.0277C600.199 42.8509 601.286 44.4323 602.674 45.7718C604.061 47.1113 605.693 48.1531 607.568 48.8973C609.48 49.6414 611.543 50.0135 613.756 50.0135C615.893 50.0135 617.9 49.6414 619.775 48.8973C621.65 48.1159 623.337 46.9252 624.837 45.3253L628.494 48.8414C626.694 50.8507 624.5 52.3762 621.912 53.4181C619.362 54.4599 616.549 54.9808 613.474 54.9808Z" fill="black"/>
<path d="M647.939 54.9808C644.939 54.9808 642.07 54.5343 639.333 53.6413C636.595 52.7111 634.439 51.5204 632.864 50.0693L634.945 45.716C636.445 47.0182 638.358 48.0973 640.683 48.9531C643.008 49.8089 645.427 50.2368 647.939 50.2368C650.227 50.2368 652.083 49.9763 653.508 49.4554C654.933 48.9345 655.983 48.2275 656.658 47.3345C657.333 46.4043 657.671 45.3625 657.671 44.209C657.671 42.8695 657.221 41.7905 656.321 40.9719C655.458 40.1533 654.315 39.5022 652.889 39.0185C651.502 38.4976 649.964 38.0511 648.277 37.679C646.589 37.3069 644.883 36.879 643.158 36.3953C641.47 35.8744 639.914 35.2232 638.489 34.4419C637.101 33.6605 635.976 32.6187 635.114 31.3164C634.251 29.9769 633.82 28.2653 633.82 26.1816C633.82 24.1724 634.345 22.3306 635.395 20.6562C636.482 18.9446 638.133 17.5865 640.345 16.5819C642.595 15.5401 645.445 15.0191 648.896 15.0191C651.183 15.0191 653.452 15.3168 655.702 15.9121C657.952 16.5075 659.902 17.3633 661.552 18.4795L659.696 22.9445C658.008 21.8283 656.227 21.0283 654.352 20.5446C652.477 20.0237 650.658 19.7632 648.896 19.7632C646.683 19.7632 644.864 20.0423 643.439 20.6004C642.014 21.1585 640.964 21.9027 640.289 22.8329C639.651 23.7631 639.333 24.8049 639.333 25.9584C639.333 27.3351 639.764 28.4327 640.626 29.2513C641.526 30.0699 642.67 30.721 644.058 31.2047C645.483 31.6884 647.039 32.1349 648.727 32.5442C650.414 32.9163 652.102 33.3442 653.789 33.8279C655.515 34.3116 657.071 34.9442 658.458 35.7255C659.884 36.5069 661.027 37.5487 661.89 38.851C662.752 40.1533 663.184 41.8277 663.184 43.8741C663.184 45.8462 662.64 47.688 661.552 49.3996C660.465 51.0739 658.777 52.432 656.49 53.4739C654.24 54.4785 651.389 54.9808 647.939 54.9808Z" fill="black"/>
<defs>
<linearGradient id="paint0_linear_1335_23" x1="0.000217438" y1="0" x2="43.2216" y2="58.9146" gradientUnits="userSpaceOnUse">
<stop stop-color="#18B68A"/>
<stop offset="1" stop-color="#66CF79"/>
</linearGradient>
<linearGradient id="paint1_linear_1335_23" x1="74.3803" y1="54.198" x2="89.3811" y2="68.3841" gradientUnits="userSpaceOnUse">
<stop stop-color="#18B68A"/>
<stop offset="1" stop-color="#66CF79"/>
</linearGradient>
<linearGradient id="paint2_linear_1335_23" x1="0" y1="10.6803" x2="33.573" y2="86.2989" gradientUnits="userSpaceOnUse">
<stop stop-color="#18B68A"/>
<stop offset="1" stop-color="#66CF79"/>
</linearGradient>
<linearGradient id="paint3_linear_1335_23" x1="15.5922" y1="54.198" x2="30.5929" y2="68.382" gradientUnits="userSpaceOnUse">
<stop stop-color="#18B68A"/>
<stop offset="1" stop-color="#66CF79"/>
</linearGradient>
</defs>
</svg>
