<svg width="60" height="60" viewBox="0 0 60 60" fill="none" xmlns="http://www.w3.org/2000/svg">
<rect width="60" height="60" rx="4" fill="url(#paint0_linear_1320_12)"/>
<path d="M35.5719 36.4528H46.7145V18.0857H21.0002V26.4121" fill="#66CF79"/>
<path d="M46.7141 37.7386H35.5715C34.8614 37.7386 34.2858 37.163 34.2858 36.4529C34.2858 35.7429 34.8614 35.1671 35.5715 35.1671H45.4285V19.3715H22.2856V26.4122C22.2856 27.1222 21.7099 27.6979 20.9998 27.6979C20.2898 27.6979 19.7141 27.1222 19.7141 26.4122V18.0857C19.7141 17.3757 20.2898 16.8 20.9998 16.8H46.7141C47.4242 16.8 47.9999 17.3757 47.9999 18.0857V36.4529C47.9999 37.163 47.4242 37.7386 46.7141 37.7386Z" fill="white"/>
<path d="M25.8979 16.8H20.9998C20.2898 16.8 19.7141 17.3757 19.7141 18.0857V22.9836C19.7141 23.6937 20.2898 24.2693 20.9998 24.2693C24.4096 24.2693 27.1836 21.4954 27.1836 18.0858C27.1836 17.3757 26.608 16.8 25.8979 16.8Z" fill="white"/>
<path d="M46.7142 30.2693C43.3046 30.2693 40.5305 33.0433 40.5305 36.453C40.5305 37.1632 41.1062 37.7388 41.8163 37.7388H46.7142C47.4242 37.7388 47.9999 37.1632 47.9999 36.453V31.5551C47.9999 30.8451 47.4242 30.2693 46.7142 30.2693Z" fill="white"/>
<path d="M46.7142 16.8H41.8163C41.1062 16.8 40.5305 17.3757 40.5305 18.0857C40.5305 21.4953 43.3044 24.2692 46.7142 24.2692C47.4242 24.2692 47.9999 23.6937 47.9999 22.9835V18.0857C47.9999 17.3757 47.4242 16.8 46.7142 16.8Z" fill="white"/>
<path d="M33.8577 23.5733C31.9756 23.5733 30.292 24.4501 29.5687 25.8072C29.3562 26.2056 29.3684 26.6864 29.6007 27.0736C29.8331 27.4609 30.2516 27.6977 30.7031 27.6977L34.2865 27.6978L34.2866 29.3456C34.2866 29.7765 34.5026 30.1788 34.8616 30.417C35.0755 30.5588 35.3233 30.6313 35.5724 30.6313C35.7418 30.6313 35.9117 30.5978 36.0724 30.53C37.5808 29.8931 38.5178 28.6438 38.5178 27.2693C38.5178 25.1968 36.4708 23.5733 33.8577 23.5733Z" fill="white"/>
<path d="M35.5719 25.1264H13.286C12.5759 25.1264 12.0002 25.7021 12.0002 26.4122V42.208C12.0002 42.9181 12.5759 43.4938 13.286 43.4938H35.5719C36.282 43.4938 36.8576 42.9181 36.8576 42.208V26.4122C36.8576 25.7021 36.2819 25.1264 35.5719 25.1264Z" fill="white"/>
<path d="M36.8575 32.8322H12C12 31.7217 12.0001 32.2566 12.0001 31.5466C12.0001 30.8365 12.0001 31.5466 12.0001 30.2608H36.8575C36.8575 31.2521 36.8575 31.5466 36.8575 31.5466C36.8575 32.2566 36.8575 31.8782 36.8575 32.8322Z" fill="#66CF79"/>
<path d="M22.7141 35.4122H18.4283C17.7182 35.4122 17.1426 35.9879 17.1426 36.6979C17.1426 37.408 17.7182 37.9837 18.4283 37.9837H22.7142C23.4243 37.9837 24 37.408 24 36.6979C23.9999 35.9879 23.4242 35.4122 22.7141 35.4122Z" fill="#66CF79"/>
<defs>
<linearGradient id="paint0_linear_1320_12" x1="60" y1="0" x2="0" y2="60" gradientUnits="userSpaceOnUse">
<stop stop-color="#18B68A"/>
<stop offset="1" stop-color="#66CF79"/>
</linearGradient>
</defs>
</svg>
