<svg width="60" height="60" viewBox="0 0 60 60" fill="none" xmlns="http://www.w3.org/2000/svg">
<rect width="60" height="60" rx="4" fill="url(#paint0_linear_1322_32)"/>
<path d="M29.5011 23.8623C29.5828 23.9442 29.6762 24.0027 29.7813 24.0496C29.8864 24.0964 30.0031 24.1198 30.1199 24.1198C30.2366 24.1198 30.3417 24.0964 30.4584 24.0496C30.5635 24.0027 30.6569 23.9442 30.7386 23.8623L34.241 20.3508C34.5795 20.0113 34.5795 19.4495 34.241 19.11C33.9024 18.7706 33.342 18.7706 33.0035 19.11L30.9955 21.1233V13.8779C30.9955 13.398 30.5985 13 30.1199 13C29.6412 13 29.2443 13.398 29.2443 13.8779V21.1233L27.2363 19.11C26.8977 18.7706 26.3374 18.7706 25.9988 19.11C25.6602 19.4495 25.6602 20.0113 25.9988 20.3508L29.5011 23.8623Z" fill="white"/>
<path d="M41.0573 42.6675C41.0573 42.6675 41.0573 42.5792 41.0573 42.5288V31.4101C41.0569 31.2654 41.0223 31.1229 40.9565 30.9941C40.8637 30.7939 40.7029 30.6331 40.5027 30.5403L30.4194 26.0273C30.2966 25.9715 30.1634 25.9427 30.0286 25.9427C29.8939 25.9427 29.7607 25.9715 29.6379 26.0273L19.5546 30.5403C19.3924 30.6219 19.2553 30.7458 19.1577 30.8989C19.0601 31.052 19.0056 31.2286 19 31.4101V42.5288C19.0094 42.7093 19.0655 42.8844 19.1627 43.0368C19.2598 43.1892 19.3949 43.3139 19.5546 43.3986L29.6379 47.9116C29.7599 47.9699 29.8934 48 30.0286 48C30.1639 48 30.2974 47.9699 30.4194 47.9116L40.5027 43.3986C40.6483 43.3319 40.7751 43.2303 40.8719 43.1028C40.9687 42.9752 41.0323 42.8257 41.0573 42.6675ZM20.8906 32.8598L29.0833 36.5408V45.5921L20.8906 41.9237V32.8598ZM30.974 36.5408L39.1667 32.8598V41.9237L30.974 45.5921V36.5408ZM30.0538 27.9182L37.8306 31.4101L30.0538 34.8894L22.2771 31.4101L30.0538 27.9182Z" fill="white"/>
<defs>
<linearGradient id="paint0_linear_1322_32" x1="60" y1="0" x2="0" y2="60" gradientUnits="userSpaceOnUse">
<stop stop-color="#18B68A"/>
<stop offset="1" stop-color="#66CF79"/>
</linearGradient>
</defs>
</svg>
