<svg width="50" height="50" viewBox="0 0 50 50" fill="none" xmlns="http://www.w3.org/2000/svg">
<rect width="50" height="50" rx="25" fill="url(#paint0_linear_1274_1105)"/>
<path d="M16 13V19H22V13H16ZM29.8 19V27.4H10.6C10.2682 27.4 10 27.6688 10 28V31.6C10 32.9236 11.0764 34 12.4 34H14.8539C15.1407 35.6998 16.6192 37 18.4 37C20.1808 37 21.6587 35.6998 21.9461 34H29.8C30.088 35.6992 31.6186 37 33.4 37C35.1814 37 36.6582 35.6992 36.9438 34H38.2C39.142 34 40 33.142 40 32.2V26.425C40 25.2178 39.1306 23.9851 39.025 23.8375L36.5313 20.5C35.9595 19.8112 35.062 19 34 19H29.8ZM12.4 20.2V26.2H18.4V20.2H12.4ZM19.6 20.2V26.2H25.6V20.2H19.6ZM32.8 22H36.1563L38.0688 24.55C38.2722 24.838 38.8 25.7218 38.8 26.425V26.8H32.8C32.2 26.8 31.6 26.2 31.6 25.6V23.2C31.6 22.537 32.2 22 32.8 22ZM18.4 31C19.7236 31 20.8 32.0764 20.8 33.4C20.8 34.7236 19.7236 35.8 18.4 35.8C17.0764 35.8 16 34.7236 16 33.4C16 32.0764 17.0764 31 18.4 31ZM33.4 31C34.7242 31 35.8 32.0758 35.8 33.4C35.8 34.7242 34.7242 35.8 33.4 35.8C32.0758 35.8 31 34.7242 31 33.4C31 32.0758 32.0758 31 33.4 31Z" fill="white"/>
<defs>
<linearGradient id="paint0_linear_1274_1105" x1="50" y1="0" x2="0" y2="50" gradientUnits="userSpaceOnUse">
<stop stop-color="#18B68A"/>
<stop offset="1" stop-color="#66CF79"/>
</linearGradient>
</defs>
</svg>
