<svg width="50" height="50" viewBox="0 0 50 50" fill="none" xmlns="http://www.w3.org/2000/svg">
<rect width="50" height="50" rx="25" fill="url(#paint0_linear_1274_1108)"/>
<rect x="14.6667" y="20.5" width="21.6667" height="15.8333" fill="white"/>
<path d="M35.3972 18.7262H35.0402V15.5139C35.0365 14.8524 34.7721 14.2191 34.3043 13.7514C33.8366 13.2836 33.2032 13.0192 32.5418 13.0155C32.4286 12.9948 32.3124 12.9948 32.1991 13.0155L15.2097 18.7262H15.0527H14.8242L14.5815 18.8119H14.3816L14.1532 18.9404L13.9819 19.1831L13.782 19.3544L13.625 19.4972L13.4536 19.7113C13.408 19.7523 13.3694 19.8005 13.3394 19.8541C13.2864 19.9366 13.2387 20.0225 13.1967 20.1111L13.111 20.2681C13.0713 20.3706 13.0379 20.4755 13.0111 20.5822C13.0175 20.6344 13.0175 20.6871 13.0111 20.7392C12.9963 20.9007 12.9963 21.0632 13.0111 21.2247V35.5016C13.0141 36.1462 13.2647 36.7649 13.7111 37.2299C14.1575 37.695 14.7656 37.9707 15.4096 38H35.3972C36.0586 37.9961 36.6919 37.7317 37.1596 37.264C37.6275 36.7963 37.8919 36.163 37.8956 35.5016V21.2247C37.8919 20.5632 37.6275 19.9299 37.1596 19.4621C36.6919 18.9944 36.0586 18.73 35.3972 18.7262ZM32.656 15.1713C32.7264 15.1972 32.7872 15.2438 32.8305 15.305C32.8737 15.3661 32.8976 15.439 32.8987 15.5139V18.7262H22.0055L32.656 15.1713ZM35.7541 35.5016C35.7541 35.5962 35.7165 35.687 35.6496 35.7538C35.5826 35.8208 35.4918 35.8585 35.3972 35.8585H15.4096C15.3149 35.8585 15.2241 35.8208 15.1572 35.7538C15.0903 35.687 15.0527 35.5962 15.0527 35.5016V21.2247C15.0527 21.13 15.0903 21.0392 15.1572 20.9723C15.2241 20.9053 15.3149 20.8677 15.4096 20.8677H35.3972C35.4918 20.8677 35.5826 20.9053 35.6496 20.9723C35.7165 21.0392 35.7541 21.13 35.7541 21.2247V35.5016Z" fill="white"/>
<path d="M31.828 30.1477C32.8136 30.1477 33.6126 29.3488 33.6126 28.3631C33.6126 27.3775 32.8136 26.5785 31.828 26.5785C30.8423 26.5785 30.0434 27.3775 30.0434 28.3631C30.0434 29.3488 30.8423 30.1477 31.828 30.1477Z" fill="#66CF79"/>
<defs>
<linearGradient id="paint0_linear_1274_1108" x1="50" y1="0" x2="0" y2="50" gradientUnits="userSpaceOnUse">
<stop stop-color="#18B68A"/>
<stop offset="1" stop-color="#66CF79"/>
</linearGradient>
</defs>
</svg>
